<svg id="Layer_1" data-name="Layer 1" xmlns="http://www.w3.org/2000/svg" xmlns:xlink="http://www.w3.org/1999/xlink" viewBox="0 0 682 769"><defs><style>.cls-1{fill:url(#radial-gradient);}.cls-2,.cls-3{fill:#fff;}.cls-2,.cls-4,.cls-5,.cls-6{stroke:#fff;stroke-miterlimit:10;}.cls-2{stroke-width:0.75px;}.cls-4,.cls-5,.cls-6{fill:none;}.cls-5{stroke-width:2px;}.cls-6{stroke-width:0.5px;}</style><radialGradient id="radial-gradient" cx="341" cy="384.5" r="363.4" gradientUnits="userSpaceOnUse"><stop offset="0" stop-color="#4357ad"/><stop offset="0.42" stop-color="#4651b3"/><stop offset="0.99" stop-color="#4f3fc4"/><stop offset="1" stop-color="#4f3fc4"/></radialGradient></defs><title>Artboard 10</title><rect class="cls-1" width="682" height="769"/><path class="cls-2" d="M163.89,155.18h-.25a22.68,22.68,0,0,0-22.49-19.33,22.93,22.93,0,0,0-21.5,15.26,18.37,18.37,0,0,0-4.93-.69,18.08,18.08,0,0,0-17.9,15.23c-.4,0-.78-.06-1.15-.06a12.9,12.9,0,0,0,0,25.81h68.22a18.11,18.11,0,1,0,0-36.21Zm0,34.18H95.67a10.87,10.87,0,1,1,1.86-21.57l1.07.18.11-1.08a16.06,16.06,0,0,1,16-14.45,16.39,16.39,0,0,1,5.26.89l1,.34.3-1a20.87,20.87,0,0,1,19.86-14.79,20.66,20.66,0,0,1,20.59,18.48l.11,1,1-.09c.37,0,.7-.05,1-.05a16.07,16.07,0,1,1,0,32.14Z"/><path class="cls-2" d="M92.57,154.26H67.85a7.83,7.83,0,0,1,0-15.67,7.66,7.66,0,0,1,1.33.13l1.07.19.11-1.09A11.69,11.69,0,0,1,82,127.3a11.92,11.92,0,0,1,3.83.65l1,.35.3-1a15.17,15.17,0,0,1,29.61,2.7l.11,1,1-.09c.26,0,.5,0,.75,0a11.7,11.7,0,0,1,7.71,2.9l1.34-1.53a13.72,13.72,0,0,0-9-3.4,17.2,17.2,0,0,0-33.13-3.08,13.73,13.73,0,0,0-17,10.85l-.64,0a9.86,9.86,0,0,0,0,19.73H92.57v-2Z"/><path class="cls-3" d="M619,672.21a13.41,13.41,0,0,0-3.6-6.16,9.92,9.92,0,0,0-6.9-2.71,12.21,12.21,0,0,0-2.61.3c0-.08,0-.17,0-.25a13.06,13.06,0,0,0-1.49-6.07,15.45,15.45,0,0,0-6.21-6.23,17.27,17.27,0,0,0-8.33-2.23,12.73,12.73,0,0,0-7.33,2.16,10.83,10.83,0,0,0-1.06.86,32.8,32.8,0,0,0-2.21-7.18,28.57,28.57,0,0,0-11.94-13.28,33.42,33.42,0,0,0-16.7-4.32,35.14,35.14,0,0,0-22.86,8.27A30.72,30.72,0,0,0,520,645.62a33.71,33.71,0,0,0-3,11.68c-.62-.05-1.23-.08-1.82-.08a16.8,16.8,0,0,0-6.9,1.39,14.61,14.61,0,0,0-6.79,6.23,18.15,18.15,0,0,0,1.58,19.77,15.18,15.18,0,0,0,4.81,3.94,16.67,16.67,0,0,0,6.62,1.8h0c1.22.08,3.27.13,6,.16s6,0,9.62,0c14.83,0,35.29-.22,41.88-.25,9.78,0,16.79.25,35.49.47h.17a11.75,11.75,0,0,0,5.38-1.23,10.91,10.91,0,0,0,3-2.29,13.17,13.17,0,0,0,2.78-4.76,17,17,0,0,0,.87-5.45A17.58,17.58,0,0,0,619,672.21Zm-4.13,8.48a8.66,8.66,0,0,1-2.56,4.18,6.41,6.41,0,0,1-2,1.18,7.85,7.85,0,0,1-2.7.45h-.12c-18.68-.22-25.68-.47-35.55-.47h0c-6.62,0-27.06.25-41.86.25-3.63,0-6.92,0-9.57,0s-4.69-.08-5.72-.16h0a12.39,12.39,0,0,1-4.93-1.33,11.16,11.16,0,0,1-4.68-4.69,13.94,13.94,0,0,1-1.61-6.57,12.76,12.76,0,0,1,2.91-8.34,10.14,10.14,0,0,1,3.55-2.64,12.49,12.49,0,0,1,5.16-1,18.75,18.75,0,0,1,3.44.34,2.14,2.14,0,0,0,2.54-2.07,30.1,30.1,0,0,1,2.72-12.33,26.85,26.85,0,0,1,11.13-12,31.59,31.59,0,0,1,15.63-4.09A28,28,0,0,1,569.26,638a24.24,24.24,0,0,1,6.11,8.39,31.14,31.14,0,0,1,2.53,12.09,2.14,2.14,0,0,0,4.22.47,8.34,8.34,0,0,1,1.16-2.69,6.69,6.69,0,0,1,2.79-2.37,9.06,9.06,0,0,1,3.83-.79,12.93,12.93,0,0,1,9.59,4.42,9.56,9.56,0,0,1,1.59,2.68,8.75,8.75,0,0,1,.58,3.15,10.4,10.4,0,0,1-.41,2.84,2.14,2.14,0,0,0,3,2.52,10.16,10.16,0,0,1,4.31-1.11,5.68,5.68,0,0,1,2.84.72,6.17,6.17,0,0,1,1.65,1.37,9.46,9.46,0,0,1,1.76,3.24,13.24,13.24,0,0,1,.63,4.08A12.86,12.86,0,0,1,614.91,680.69Z"/><path class="cls-3" d="M514.4,193.63a3.71,3.71,0,0,0-4.08-.37h0L206.64,354.38a3.71,3.71,0,0,0,.37,6.68l93.18,39.35,17.45,108,60.14-58.65,73.5,49.75,2.23.74H455a3.71,3.71,0,0,0,2.23-2.6l58.65-300.33A3.71,3.71,0,0,0,514.4,193.63Zm-23.76,18.56L302.79,393.36l-85.75-36ZM339.55,419a3.71,3.71,0,0,0-.74,1.86l-17.45,62.74-13.74-84.64,173-166.68Zm-11.88,69.42,17.08-60.88,26.73,18.19Zm122.88,1.86L347.71,420.46,505.49,211.82Z"/><line class="cls-4" x1="248.18" y1="353.76" x2="89.02" y2="507.31"/><line class="cls-4" x1="182.19" y1="506.2" x2="84.57" y2="600.38"/><line class="cls-4" x1="214.05" y1="474.1" x2="190" y2="497.31"/><line class="cls-4" x1="434.67" y1="459.29" x2="337.05" y2="553.47"/><line class="cls-4" x1="365.42" y1="599.86" x2="312.36" y2="651.04"/><line class="cls-4" x1="306" y1="657.18" x2="281.95" y2="680.39"/><line class="cls-4" x1="308.2" y1="339.12" x2="250.48" y2="394.81"/><line class="cls-4" x1="226.71" y1="417.74" x2="215.38" y2="428.67"/><line class="cls-4" x1="244.69" y1="400.39" x2="233.77" y2="410.92"/><line class="cls-5" x1="202.52" y1="564.97" x2="202.52" y2="580.43"/><line class="cls-5" x1="210.25" y1="573.1" x2="194.79" y2="573.1"/><line class="cls-5" x1="512.97" y1="488.84" x2="512.97" y2="504.31"/><line class="cls-5" x1="520.71" y1="496.97" x2="505.24" y2="496.97"/><line class="cls-5" x1="272.7" y1="153.41" x2="272.7" y2="168.87"/><line class="cls-5" x1="280.43" y1="161.54" x2="264.97" y2="161.54"/><line class="cls-5" x1="529.63" y1="216.45" x2="529.63" y2="231.92"/><line class="cls-5" x1="537.36" y1="224.58" x2="521.89" y2="224.58"/><line class="cls-5" x1="297.68" y1="246.19" x2="297.68" y2="261.65"/><line class="cls-5" x1="305.41" y1="254.32" x2="289.95" y2="254.32"/><line class="cls-5" x1="143.05" y1="368.71" x2="143.05" y2="384.17"/><line class="cls-5" x1="150.78" y1="376.83" x2="135.32" y2="376.83"/><line class="cls-5" x1="449.93" y1="587.57" x2="449.93" y2="603.03"/><line class="cls-5" x1="457.66" y1="595.7" x2="442.2" y2="595.7"/><line class="cls-5" x1="480.86" y1="576.86" x2="480.86" y2="592.33"/><line class="cls-5" x1="488.59" y1="584.99" x2="473.13" y2="584.99"/><line class="cls-5" x1="446.36" y1="385.36" x2="446.36" y2="400.82"/><line class="cls-5" x1="454.09" y1="393.49" x2="438.63" y2="393.49"/><circle class="cls-6" cx="380.76" cy="368.84" r="201.8"/><path class="cls-6" d="M530.34,480.37A185.7,185.7,0,0,1,252.46,502"/><path class="cls-6" d="M381.85,183.17A185.5,185.5,0,0,1,561,319.66"/><path class="cls-6" d="M213.2,291a185.53,185.53,0,0,1,18-30.72"/><path class="cls-6" d="M197.9,343.39a184.47,184.47,0,0,1,9.28-37.68"/></svg>